<svg xmlns="http://www.w3.org/2000/svg" xml:space="preserve" width="494.135" height="277.349" viewBox="0 0 130.74 73.382">
    <style>
        path {
            fill: #000;
        }
        @media (prefers-color-scheme: dark) {
            path {
                fill: white;
            }
        }
    </style>
    <path d="M66.238.005c-6.482-.14-15.371 2.486-31.065 8.65-3.033 1.192-3.15 1.215-7.52 1.48-2.864.172-4.55.383-4.753.595-.173.18-.967 1.574-1.764 3.097l-1.451 2.77-1.767.613c-3.9 1.354-7.23 1.717-9.038.986-1.3-.525-2.036-1.7-2.994-4.78l-1.549-4.98c-.426-1.37-1.043-2.902-1.372-3.404C2.299 4.013.954 2.988.285 2.988c-.394 0-.387.086.064.86.733 1.256 1.306 4.55 1.576 9.062.271 4.528.682 6.086 2.104 7.973 1.734 2.301 6.389 4.045 9.863 3.697.835-.084 1.519-.091 1.519-.016 0 .076-.308.745-.684 1.489l-.683 1.35 1.146-.151c.63-.084 1.6-.237 2.155-.34l1.01-.187-.174 1.956a72.092 72.092 0 0 1-.414 3.544c-.132.873-.24 1.99-.241 2.48l-.002.894 1.056-.169c.745-.12 1.056-.074 1.056.153 0 .301-.436 1.784-2.32 7.887-.426 1.382-.727 2.598-.67 2.702.058.104 1.25 1.145 2.648 2.315l2.542 2.126h6.451l2.786-1.323c1.532-.727 2.888-1.322 3.013-1.322.214 0 .874 1.041 2.563 4.041l.712 1.264.71-.532a201.18 201.18 0 0 0 1.426-1.079l.715-.546.624 1.005c.343.553 1.328 2.162 2.19 3.576.862 1.413 1.627 2.574 1.7 2.58.075.004.659-.765 1.299-1.71.64-.946 1.248-1.72 1.35-1.72.342 0 .509 1.962.789 9.282.153 3.99.367 7.67.476 8.18l.2.926 5.343.071c4.144.056 5.365-.004 5.438-.264.605-2.147.96-3.138 2.026-5.662.684-1.62 1.325-3.314 1.424-3.767.1-.453.284-.888.412-.966.127-.08 1.016 2.304 1.975 5.294l1.744 5.438 9.61-.144.131-6.047.132-6.048 3.89-1.556 3.889-1.555 1.92.884c1.057.485 2.456 1.13 3.11 1.434.653.302 1.978.902 2.943 1.332 2.06.918 1.914.52 2.34 6.397.424 5.85.137 5.297 2.723 5.292 2.102-.005 4.096-.006 6.144.045.092-.298.297-3.576.339-4.129.029-.386.195-1.283.434-5.838.167-3.188.361-4.634.62-4.625.094.003 1.596 2.176 3.339 4.829 1.743 2.652 3.288 4.965 3.433 5.139.145.174.858 1.271 1.585 2.438l1.32 2.12 4.82.011c3.684.007 4.819-.069 4.819-.321 0-.182-.185-2.058-.409-4.168a599.29 599.29 0 0 1-.652-6.482l-.526-5.688c-.154-1.673-.328-3.18-.385-3.348-.235-.688.331-.52 3.323.982 1.726.867 3.139 1.533 3.139 1.482 0-.225-1.661-4.631-3.293-8.736a48.04 48.04 0 0 1-1.646-4.944c-.12-.452.322-.243.776-.107.317.095 5.539 1.474 5.66 1.351.082-.08-.27-.897-.779-1.814-.51-.917-1.237-2.233-1.615-2.924a249.702 249.702 0 0 0-3.292-5.86c-.747-1.293-1.357-2.38-1.357-2.413 0-.034-.881-1.594-1.958-3.468l-1.957-3.407-1.542-.481c-7.515-2.347-9.627-3.033-12.502-4.062-6.154-2.203-17.294-7.642-20.73-10.121-2.487-1.794-9.629-6.333-11-6.99C71.633.704 69.183.069 66.237.005zM57.492 5.36c.122.028.142.12-.001.295-.667.818-1.38 3.708-1.662 6.726-.162 1.746-.4 4.267-.529 5.602-.26 2.71-.837 4.265-2.123 5.732-2.456 2.803-7.329 3.97-12.29 2.943-2.302-.476-6.211-2.052-6.852-2.762-1.183-1.31-.487-4.605 1.113-5.268.712-.296 1.124-.215 4.062.804 3.114 1.08 3.418 1.135 6.35 1.143 2.928.008 3.117-.025 3.79-.653 1.05-.982 1.555-2.14 2.773-6.365 1.258-4.365 2.04-6.182 3.101-7.2.605-.58 1.9-1.08 2.268-.997z"/></svg>